<svg width="169" height="25" viewBox="0 0 169 25" fill="none" xmlns="http://www.w3.org/2000/svg">
<path d="M15.225 11.225C15.5417 11.4917 15.8 11.7667 16 12.05C16.2 12.3167 16.3417 12.6833 16.425 13.15C16.5083 13.6 16.5333 14.2333 16.5 15.05C16.4833 15.45 16.4083 15.9167 16.275 16.45C16.1583 16.9833 15.95 17.525 15.65 18.075C15.35 18.625 14.9333 19.1333 14.4 19.6C13.8667 20.0667 13.1917 20.45 12.375 20.75C11.5583 21.05 10.5583 21.2 9.375 21.2H8.875C8.29167 21.1667 7.59167 21.15 6.775 21.15C5.95833 21.1667 5.2 21.175 4.5 21.175C4.08333 21.2083 3.64167 21.225 3.175 21.225C2.70833 21.225 2.28333 21.2 1.9 21.15C1.51667 21.1 1.23333 21.025 1.05 20.925C1.16667 20.6917 1.26667 20.3417 1.35 19.875C1.45 19.3917 1.525 18.8667 1.575 18.3C1.625 17.7333 1.64167 17.1917 1.625 16.675C1.625 16.5417 1.61667 16.2083 1.6 15.675C1.6 15.125 1.59167 14.45 1.575 13.65C1.575 12.8333 1.56667 11.95 1.55 11C1.55 10.05 1.55 9.1 1.55 8.15C1.55 7.16667 1.54167 6.325 1.525 5.625C1.50833 4.925 1.35 4.49167 1.05 4.325C0.766667 4.14167 0.516667 3.78333 0.3 3.25C0.1 2.7 7.07805e-08 1.99167 7.07805e-08 1.125C0.0666667 1.14167 0.275 1.16667 0.625 1.2C0.975 1.21667 1.30833 1.24167 1.625 1.275C2.00833 1.29167 2.55 1.30833 3.25 1.325C3.96667 1.325 4.70833 1.325 5.475 1.325C6.05833 1.325 6.64167 1.325 7.225 1.325C7.80833 1.325 8.33333 1.33333 8.8 1.35C9.28333 1.35 9.63333 1.35 9.85 1.35C10.8833 1.35 11.7917 1.54167 12.575 1.925C13.3583 2.29167 13.975 2.78333 14.425 3.4C14.875 4.01667 15.1 4.69167 15.1 5.425C15.1 6.15833 14.9833 6.8 14.75 7.35C14.5333 7.9 14.3167 8.36667 14.1 8.75C13.8833 9.11667 13.7833 9.40833 13.8 9.625C13.85 9.975 14.0083 10.25 14.275 10.45C14.5583 10.65 14.875 10.9083 15.225 11.225ZM10.175 6.85C10.2083 6.63333 10.1083 6.43333 9.875 6.25C9.65833 6.05 9.35833 5.89167 8.975 5.775C8.60833 5.64167 8.21667 5.575 7.8 5.575C7.38333 5.575 7.06667 5.68333 6.85 5.9C6.63333 6.11667 6.49167 6.375 6.425 6.675C6.35833 6.95833 6.34167 7.2 6.375 7.4C6.425 7.71667 6.65833 7.94167 7.075 8.075C7.50833 8.19167 7.91667 8.25833 8.3 8.275C8.68333 8.29167 9.075 8.19167 9.475 7.975C9.875 7.74167 10.1083 7.36667 10.175 6.85ZM9.175 16.35C9.775 16.3333 10.225 16.2417 10.525 16.075C10.8417 15.9083 11.0583 15.6917 11.175 15.425C11.2917 15.1583 11.3667 14.8917 11.4 14.625C11.45 14.2583 11.3417 13.9417 11.075 13.675C10.8083 13.3917 10.4417 13.175 9.975 13.025C9.50833 12.875 8.99167 12.8083 8.425 12.825C7.85833 12.825 7.41667 12.95 7.1 13.2C6.78333 13.45 6.56667 13.7417 6.45 14.075C6.33333 14.3917 6.28333 14.675 6.3 14.925C6.35 15.275 6.61667 15.6083 7.1 15.925C7.58333 16.225 8.275 16.3667 9.175 16.35ZM31.3803 17.825C31.3803 17.975 31.4053 18.2 31.4553 18.5C31.5053 18.8 31.5719 19.1083 31.6553 19.425C31.7553 19.7417 31.8553 20.025 31.9553 20.275C32.0553 20.5083 32.1553 20.65 32.2553 20.7C32.0219 20.9833 31.6469 21.2083 31.1303 21.375C30.6136 21.5583 30.0969 21.5917 29.5803 21.475C29.1803 21.3583 28.8219 21.25 28.5053 21.15C28.1886 21.05 27.7553 21.0083 27.2053 21.025C26.8053 21.0417 26.4053 21.0833 26.0053 21.15C25.6219 21.2167 25.2303 21.2917 24.8303 21.375C24.6303 21.4083 24.2803 21.4167 23.7803 21.4C23.2969 21.4 22.7636 21.3417 22.1803 21.225C21.6136 21.1083 21.0886 20.9083 20.6053 20.625C19.9719 20.2417 19.4969 19.6833 19.1803 18.95C18.8636 18.2167 18.6803 17.4667 18.6303 16.7C18.6303 16.5167 18.6219 16.1583 18.6053 15.625C18.6053 15.0917 18.5969 14.4583 18.5803 13.725C18.5803 12.9917 18.5719 12.2333 18.5553 11.45C18.5553 10.6667 18.5469 9.94167 18.5303 9.275C18.5303 8.59167 18.5303 8.04167 18.5303 7.625C18.5303 7.19167 18.5303 6.975 18.5303 6.975C18.6803 6.95833 18.9303 6.94167 19.2803 6.925C19.6469 6.89167 20.0469 6.89167 20.4803 6.925C20.9136 6.95833 21.3303 7.04167 21.7303 7.175C22.1469 7.29167 22.4969 7.48333 22.7803 7.75C23.0803 8.01667 23.2553 8.375 23.3053 8.825C23.3386 9.19167 23.3636 9.525 23.3803 9.825C23.3969 10.125 23.4053 10.4583 23.4053 10.825C23.4053 11.175 23.3886 11.6167 23.3553 12.15C23.3386 12.6667 23.3136 13.325 23.2803 14.125C23.2469 14.775 23.2303 15.3333 23.2303 15.8C23.2469 16.2667 23.3636 16.6167 23.5803 16.85C23.7969 17.0833 24.1803 17.1833 24.7303 17.15C25.0969 17.1333 25.3969 16.9917 25.6303 16.725C25.8803 16.4417 26.0803 16.1 26.2303 15.7C26.3803 15.3 26.4803 14.8917 26.5303 14.475C26.5969 14.0583 26.6303 13.6917 26.6303 13.375C26.6303 13.3083 26.6219 13.05 26.6053 12.6C26.6053 12.15 26.5969 11.6167 26.5803 11C26.5803 10.3667 26.5719 9.74167 26.5553 9.125C26.5553 8.50833 26.5553 8 26.5553 7.6C26.5553 7.18333 26.5553 6.975 26.5553 6.975C26.7053 6.95833 26.9553 6.95833 27.3053 6.975C27.6553 6.975 28.0469 7.00833 28.4803 7.075C28.9136 7.14167 29.3386 7.25833 29.7553 7.425C30.1719 7.59167 30.5219 7.825 30.8053 8.125C31.1053 8.40833 31.2803 8.775 31.3303 9.225C31.4303 10.1917 31.4469 11.375 31.3803 12.775C31.3303 14.1583 31.3303 15.8417 31.3803 17.825ZM37.0529 6.125C36.4863 6.14167 35.9779 5.98333 35.5279 5.65C35.0946 5.31667 34.7613 4.90833 34.5279 4.425C34.3113 3.925 34.2279 3.45 34.2779 3C34.3613 2.31667 34.6696 1.83333 35.2029 1.55C35.7363 1.26667 36.2946 1.11667 36.8779 1.1C37.7113 1.06667 38.3613 1.28333 38.8279 1.75C39.2946 2.21667 39.5279 2.75 39.5279 3.35C39.5279 3.75 39.4363 4.15833 39.2529 4.575C39.0863 4.99167 38.8196 5.35 38.4529 5.65C38.0863 5.93333 37.6196 6.09167 37.0529 6.125ZM39.7029 18.475C39.7196 18.775 39.8113 19.0333 39.9779 19.25C40.1613 19.45 40.3779 19.6417 40.6279 19.825C40.5113 19.975 40.3613 20.1333 40.1779 20.3C39.9946 20.4667 39.7196 20.625 39.3529 20.775C39.0029 20.9083 38.4946 21.0167 37.8279 21.1C37.6113 21.1167 37.3363 21.0917 37.0029 21.025C36.6696 20.975 36.3363 20.8167 36.0029 20.55C35.6863 20.2667 35.4279 19.825 35.2279 19.225C35.0279 18.6083 34.9446 17.7667 34.9779 16.7C34.9946 16.5167 34.9946 16.1583 34.9779 15.625C34.9779 15.0917 34.9696 14.4583 34.9529 13.725C34.9529 12.9917 34.9446 12.2333 34.9279 11.45C34.9279 10.6667 34.9196 9.94167 34.9029 9.275C34.9029 8.59167 34.8946 8.04167 34.8779 7.625C34.8779 7.19167 34.8779 6.975 34.8779 6.975C35.0279 6.95833 35.2779 6.94167 35.6279 6.925C35.9946 6.89167 36.3946 6.89167 36.8279 6.925C37.2613 6.95833 37.6779 7.04167 38.0779 7.175C38.4946 7.29167 38.8446 7.48333 39.1279 7.75C39.4279 8.01667 39.6029 8.375 39.6529 8.825C39.7363 9.45833 39.7696 10.3083 39.7529 11.375C39.7363 12.425 39.7113 13.575 39.6779 14.825C39.6446 16.0583 39.6529 17.275 39.7029 18.475ZM43.052 18.95C43.052 18.8167 43.052 18.4583 43.052 17.875C43.052 17.275 43.052 16.5333 43.052 15.65C43.052 14.7667 43.0436 13.8 43.027 12.75C43.027 11.6833 43.027 10.6083 43.027 9.525C43.027 8.44167 43.0186 7.41667 43.002 6.45C43.002 5.46667 42.9936 4.61667 42.977 3.9C42.9603 3.21667 42.902 2.65 42.802 2.2C42.702 1.73333 42.6436 1.45 42.627 1.35C42.827 1.31667 43.127 1.30833 43.527 1.325C43.927 1.325 44.3686 1.375 44.852 1.475C45.352 1.55833 45.827 1.7 46.277 1.9C46.727 2.08333 47.102 2.35 47.402 2.7C47.702 3.03333 47.8603 3.45833 47.877 3.975C47.8936 4.29167 47.902 4.85 47.902 5.65C47.9186 6.43333 47.927 7.35833 47.927 8.425C47.9436 9.475 47.9603 10.5583 47.977 11.675C47.9936 12.775 48.002 13.8167 48.002 14.8C48.0186 15.7833 48.027 16.6083 48.027 17.275C48.0436 17.925 48.052 18.3083 48.052 18.425C48.052 18.775 48.1436 19.1167 48.327 19.45C48.527 19.7667 48.7353 19.9667 48.952 20.05C48.852 20.1833 48.627 20.3583 48.277 20.575C47.927 20.7917 47.5186 20.9917 47.052 21.175C46.602 21.3583 46.1436 21.475 45.677 21.525C45.2936 21.5583 44.8936 21.4667 44.477 21.25C44.077 21.05 43.7353 20.75 43.452 20.35C43.1853 19.95 43.052 19.4833 43.052 18.95ZM64.7771 17.9C65.0605 18.2333 65.4771 18.4667 66.0271 18.6C65.9438 18.95 65.8355 19.325 65.7021 19.725C65.5855 20.125 65.3938 20.475 65.1271 20.775C64.8771 21.075 64.5105 21.2667 64.0271 21.35C63.8105 21.4 63.5355 21.3833 63.2021 21.3C62.8688 21.2167 62.4688 21.1167 62.0021 21C61.7021 20.9167 61.3188 20.9 60.8521 20.95C60.3855 20.9833 59.9438 21.0333 59.5271 21.1C59.1271 21.1667 58.8605 21.2167 58.7271 21.25C58.5438 21.3 58.3605 21.325 58.1771 21.325C57.9938 21.3417 57.8105 21.35 57.6271 21.35C56.7605 21.35 55.9021 21.2 55.0521 20.9C54.2188 20.5833 53.4688 20.1 52.8021 19.45C52.1355 18.8 51.6271 17.975 51.2771 16.975C50.9438 15.975 50.8521 14.775 51.0021 13.375C51.1021 12.4083 51.3605 11.5083 51.7771 10.675C52.2105 9.84167 52.7438 9.11667 53.3771 8.5C54.0105 7.86667 54.6855 7.38333 55.4021 7.05C56.1355 6.7 56.8521 6.525 57.5521 6.525C57.7021 6.525 57.8438 6.525 57.9771 6.525C58.1271 6.525 58.2688 6.51667 58.4021 6.5C58.7021 6.45 58.9938 6.28333 59.2771 6C59.5605 5.71667 59.7521 5.36667 59.8521 4.95C59.9021 4.71667 59.9355 4.44167 59.9521 4.125C59.9688 3.80833 59.9771 3.61667 59.9771 3.55C60.0271 3.16667 60.1688 2.84167 60.4021 2.575C60.6355 2.29167 60.9105 2.06667 61.2271 1.9C61.6605 1.66667 62.1355 1.5 62.6521 1.4C63.1688 1.3 63.6438 1.25 64.0771 1.25C64.5271 1.23333 64.8605 1.25 65.0771 1.3C65.0605 1.4 65.0271 1.75833 64.9771 2.375C64.9271 2.99167 64.8688 3.76667 64.8021 4.7C64.7355 5.63333 64.6688 6.65833 64.6021 7.775C64.5355 8.875 64.4771 9.98333 64.4271 11.1C64.3938 12.2167 64.3771 13.2583 64.3771 14.225C64.3771 15.1917 64.4105 16 64.4771 16.65C64.5438 17.3 64.6438 17.7167 64.7771 17.9ZM55.4771 14.2C55.4271 14.85 55.5021 15.3917 55.7021 15.825C55.9188 16.2417 56.1855 16.5583 56.5021 16.775C56.8355 16.975 57.1605 17.0833 57.4771 17.1C58.0771 17.1167 58.5355 16.9667 58.8521 16.65C59.1855 16.3167 59.4105 15.8833 59.5271 15.35C59.6438 14.8 59.7021 14.2167 59.7021 13.6C59.7021 12.6667 59.5188 11.9917 59.1521 11.575C58.7855 11.1583 58.2105 10.975 57.4271 11.025C56.9271 11.0583 56.4938 11.3 56.1271 11.75C55.7771 12.2 55.5605 13.0167 55.4771 14.2ZM89.2676 18.375C89.2842 18.7083 89.3259 19.0333 89.3926 19.35C89.4759 19.6667 89.5759 19.9 89.6926 20.05C89.5426 20.2 89.3092 20.375 88.9926 20.575C88.6926 20.775 88.3426 20.9333 87.9426 21.05C87.5592 21.1833 87.1509 21.2417 86.7176 21.225C86.0676 21.1917 85.5426 20.9167 85.1426 20.4C84.7592 19.8833 84.5592 19.2417 84.5426 18.475C84.5426 18.325 84.5426 18.05 84.5426 17.65C84.5426 17.2333 84.5426 16.7917 84.5426 16.325C84.5426 15.8583 84.5426 15.475 84.5426 15.175C84.5426 14.8917 84.4676 14.6167 84.3176 14.35C84.1842 14.0833 84.0259 13.925 83.8426 13.875C83.5926 13.7917 83.3842 13.9417 83.2176 14.325C83.1842 14.4083 83.0759 14.6167 82.8926 14.95C82.7092 15.2667 82.5009 15.6417 82.2676 16.075C82.0509 16.5083 81.8426 16.9417 81.6426 17.375C81.4592 17.8083 81.3342 18.1833 81.2676 18.5C81.2009 18.8 81.2426 18.9833 81.3926 19.05C81.3259 19.2167 81.2009 19.4583 81.0176 19.775C80.8509 20.0917 80.5676 20.3667 80.1676 20.6C79.7842 20.8167 79.2342 20.9 78.5176 20.85C78.1342 20.8167 77.6426 20.5833 77.0426 20.15C76.4426 19.7167 75.8676 18.925 75.3176 17.775C74.8009 16.675 74.3759 15.9333 74.0426 15.55C73.7259 15.15 73.4926 14.9667 73.3426 15C73.2092 15.0167 73.1009 15.1083 73.0176 15.275C72.9509 15.4417 72.8842 15.675 72.8176 15.975C72.7842 16.125 72.7676 16.375 72.7676 16.725C72.7676 17.075 72.7842 17.4667 72.8176 17.9C72.8509 18.3333 72.9092 18.7417 72.9926 19.125C73.0926 19.5083 73.2176 19.8 73.3676 20C73.2342 20.0833 72.9926 20.225 72.6426 20.425C72.3092 20.625 71.9259 20.8083 71.4926 20.975C71.0759 21.125 70.6676 21.2 70.2676 21.2C69.6676 21.1833 69.1676 21.025 68.7676 20.725C68.3676 20.4083 68.1259 19.7917 68.0426 18.875C68.0259 18.725 68.0176 18.3 68.0176 17.6C68.0176 16.9 68.0176 16.0167 68.0176 14.95C68.0176 13.8833 68.0176 12.7417 68.0176 11.525C68.0176 10.2917 68.0176 9.075 68.0176 7.875C68.0176 6.675 68.0176 5.575 68.0176 4.575C68.0342 3.575 68.0426 2.775 68.0426 2.175C68.0426 1.575 68.0426 1.275 68.0426 1.275C68.2259 1.24167 68.5342 1.23333 68.9676 1.25C69.4009 1.26667 69.8759 1.33333 70.3926 1.45C70.9092 1.56667 71.3842 1.75833 71.8176 2.025C72.2509 2.275 72.5509 2.63333 72.7176 3.1C72.7176 3.1 72.7926 3.25833 72.9426 3.575C73.1092 3.875 73.3259 4.275 73.5926 4.775C73.8592 5.25833 74.1426 5.78333 74.4426 6.35C74.7592 6.91667 75.0592 7.475 75.3426 8.025C75.6426 8.575 75.9009 9.05833 76.1176 9.475C76.3509 9.89167 76.5092 10.1833 76.5926 10.35C76.8759 10.8333 77.1426 11.1667 77.3926 11.35C77.6592 11.5333 77.9426 11.6333 78.2426 11.65C78.8592 11.65 79.4509 11.175 80.0176 10.225C80.1009 10.075 80.2676 9.75833 80.5176 9.275C80.7676 8.775 81.0592 8.18333 81.3926 7.5C81.7259 6.81667 82.0676 6.11667 82.4176 5.4C82.7842 4.68333 83.1176 4.01667 83.4176 3.4C83.7176 2.76667 83.9592 2.25833 84.1426 1.875C84.3426 1.475 84.4426 1.275 84.4426 1.275C84.5592 1.25833 84.7259 1.25 84.9426 1.25C85.1759 1.23333 85.4259 1.24167 85.6926 1.275C86.1592 1.30833 86.6509 1.4 87.1676 1.55C87.7009 1.7 88.1592 1.93333 88.5426 2.25C88.9426 2.56667 89.1676 2.99167 89.2176 3.525C89.2509 3.80833 89.2759 4.275 89.2926 4.925C89.3092 5.55833 89.3176 6.31667 89.3176 7.2C89.3176 8.06667 89.3176 8.99167 89.3176 9.975C89.3176 10.9583 89.3092 11.925 89.2926 12.875C89.2926 13.825 89.2842 14.7 89.2676 15.5C89.2676 16.3 89.2676 16.9583 89.2676 17.475C89.2676 17.975 89.2676 18.275 89.2676 18.375ZM100.524 6.65C101.674 6.8 102.508 7.13333 103.024 7.65C103.558 8.16667 103.858 8.775 103.924 9.475C104.008 10.175 103.933 10.8917 103.699 11.625C103.566 12.0417 103.366 12.575 103.099 13.225C102.849 13.8583 102.583 14.5083 102.299 15.175C102.033 15.8417 101.783 16.4417 101.549 16.975C101.316 17.4917 101.158 17.8583 101.074 18.075C100.808 18.6917 100.491 19.35 100.124 20.05C99.7576 20.7333 99.3492 21.375 98.8992 21.975C98.4659 22.575 98.0076 23.0667 97.5242 23.45C97.0576 23.8333 96.5992 24.025 96.1492 24.025C95.5492 24.025 95.0576 23.875 94.6742 23.575C94.3076 23.275 94.0326 22.9 93.8492 22.45C93.6659 22.0167 93.5492 21.5917 93.4992 21.175C93.9326 21.2917 94.3326 21.2833 94.6992 21.15C95.0659 21.0333 95.3826 20.8583 95.6492 20.625C95.8992 20.3917 96.0492 20.125 96.0992 19.825C96.1659 19.525 96.1826 19.2583 96.1492 19.025C96.0659 18.0917 95.8076 17.0833 95.3742 16L91.6992 6.9C91.9492 6.86667 92.2742 6.825 92.6742 6.775C93.0909 6.70833 93.5242 6.7 93.9742 6.75C94.4409 6.78333 94.8742 6.90833 95.2742 7.125C95.6909 7.325 96.0326 7.66667 96.2992 8.15C96.3992 8.31667 96.5159 8.575 96.6492 8.925C96.7992 9.25833 96.9492 9.61667 97.0992 10C97.2659 10.3667 97.3992 10.6833 97.4992 10.95C97.6826 11.35 97.8742 11.675 98.0742 11.925C98.2909 12.1583 98.5076 12.2833 98.7242 12.3C98.9076 12.3167 99.0909 12.25 99.2742 12.1C99.4576 11.9333 99.6076 11.725 99.7242 11.475C99.8242 11.2417 99.9409 10.8917 100.074 10.425C100.208 9.95833 100.316 9.56667 100.399 9.25C100.549 8.66667 100.624 8.16667 100.624 7.75C100.641 7.33333 100.608 6.96667 100.524 6.65ZM117.806 1.125C119.04 1.30833 120.015 1.64167 120.731 2.125C121.465 2.59167 122.006 3.13333 122.356 3.75C122.706 4.36667 122.931 4.975 123.031 5.575C123.131 6.15833 123.181 6.65833 123.181 7.075C123.181 7.60833 123.09 8.225 122.906 8.925C122.723 9.60833 122.415 10.2833 121.981 10.95C121.565 11.6 121.006 12.1667 120.306 12.65C119.606 13.1167 118.731 13.4 117.681 13.5C117.498 13.5167 117.265 13.5333 116.981 13.55C116.698 13.5667 116.44 13.5833 116.206 13.6C115.99 13.6 115.856 13.6 115.806 13.6C115.173 13.6333 114.59 13.8167 114.056 14.15C113.54 14.4833 113.123 14.9167 112.806 15.45C112.506 15.9667 112.348 16.55 112.331 17.2V18.125C112.331 18.5583 112.39 18.9583 112.506 19.325C112.623 19.675 112.715 19.9167 112.781 20.05C112.381 20.4167 112.031 20.675 111.731 20.825C111.431 20.975 111.056 21.0833 110.606 21.15C110.24 21.2 109.831 21.1667 109.381 21.05C108.948 20.9333 108.556 20.7167 108.206 20.4C107.856 20.0667 107.631 19.6083 107.531 19.025C107.515 18.925 107.506 18.6083 107.506 18.075C107.506 17.525 107.506 16.85 107.506 16.05C107.523 15.2333 107.531 14.3417 107.531 13.375C107.548 12.4083 107.556 11.4417 107.556 10.475C107.556 9.50833 107.556 8.60833 107.556 7.775C107.54 6.875 107.498 6.11667 107.431 5.5C107.381 4.88333 107.256 4.49167 107.056 4.325C106.706 4.025 106.431 3.55833 106.231 2.925C106.048 2.29167 105.965 1.69167 105.981 1.125C106.048 1.14167 106.231 1.16667 106.531 1.2C106.831 1.21667 107.148 1.24167 107.481 1.275C107.648 1.275 107.923 1.275 108.306 1.275C108.69 1.25833 109.106 1.23333 109.556 1.2C110.023 1.16667 110.473 1.14167 110.906 1.125C111.34 1.09167 111.69 1.06667 111.956 1.05C112.323 1.01667 112.806 0.983333 113.406 0.949999C114.023 0.916666 114.715 0.908333 115.481 0.924999C116.248 0.941666 117.023 1.00833 117.806 1.125ZM114.831 8.925C115.065 8.94167 115.356 8.925 115.706 8.875C116.073 8.80833 116.44 8.70833 116.806 8.575C117.19 8.44167 117.506 8.25833 117.756 8.025C118.006 7.775 118.131 7.475 118.131 7.125C118.131 6.64167 117.948 6.26667 117.581 6C117.231 5.73333 116.798 5.55 116.281 5.45C115.781 5.35 115.298 5.30833 114.831 5.325C114.148 5.34167 113.565 5.53333 113.081 5.9C112.598 6.25 112.356 6.66667 112.356 7.15C112.373 7.46667 112.498 7.75833 112.731 8.025C112.981 8.275 113.29 8.48333 113.656 8.65C114.04 8.81667 114.431 8.90833 114.831 8.925ZM138.971 16.475C138.988 16.8417 139.013 17.2917 139.046 17.825C139.096 18.3583 139.204 18.875 139.371 19.375C139.538 19.875 139.804 20.275 140.171 20.575C139.754 20.8583 139.329 21.0583 138.896 21.175C138.463 21.3083 138.038 21.3417 137.621 21.275C137.504 21.2417 137.379 21.2 137.246 21.15C137.113 21.1167 136.929 21.0667 136.696 21C136.313 20.8833 135.863 20.8583 135.346 20.925C134.829 20.9917 134.288 21.075 133.721 21.175C133.171 21.2917 132.629 21.35 132.096 21.35C131.229 21.35 130.363 21.2 129.496 20.9C128.629 20.5833 127.846 20.1 127.146 19.45C126.446 18.8 125.913 17.975 125.546 16.975C125.179 15.975 125.071 14.775 125.221 13.375C125.321 12.4083 125.596 11.525 126.046 10.725C126.496 9.90833 127.046 9.20833 127.696 8.625C128.363 8.025 129.063 7.56667 129.796 7.25C130.546 6.91667 131.271 6.75833 131.971 6.775C132.504 6.79167 132.913 6.80833 133.196 6.825C133.496 6.84167 133.879 6.88333 134.346 6.95C134.629 6.98333 134.988 6.94167 135.421 6.825C135.854 6.70833 136.288 6.58333 136.721 6.45C137.171 6.3 137.554 6.225 137.871 6.225C138.354 6.20833 138.696 6.225 138.896 6.275C139.096 6.30833 139.263 6.34167 139.396 6.375C139.296 6.675 139.213 7.125 139.146 7.725C139.079 8.325 139.029 9.00833 138.996 9.775C138.979 10.525 138.963 11.3083 138.946 12.125C138.929 12.9417 138.921 13.725 138.921 14.475C138.938 15.225 138.954 15.8917 138.971 16.475ZM129.571 14.175C129.604 15.0083 129.754 15.6583 130.021 16.125C130.304 16.575 130.638 16.8917 131.021 17.075C131.421 17.2583 131.804 17.35 132.171 17.35C132.904 17.3667 133.446 17.0833 133.796 16.5C134.146 15.9167 134.313 15.1083 134.296 14.075C134.296 13.7917 134.263 13.4583 134.196 13.075C134.146 12.6917 134.046 12.3167 133.896 11.95C133.763 11.5833 133.571 11.275 133.321 11.025C133.088 10.775 132.779 10.65 132.396 10.65C131.629 10.65 130.954 10.9333 130.371 11.5C129.804 12.0667 129.538 12.9583 129.571 14.175ZM152.031 7.125C152.198 7.29167 152.323 7.6 152.406 8.05C152.506 8.48333 152.531 8.96667 152.481 9.5C152.448 10.0167 152.323 10.4917 152.106 10.925C151.906 11.3417 151.598 11.625 151.181 11.775C150.531 12.0083 150.056 12.425 149.756 13.025C149.456 13.625 149.281 14.3833 149.231 15.3V17.425C149.265 17.6917 149.373 17.9083 149.556 18.075C149.756 18.2417 149.948 18.3583 150.131 18.425C150.331 18.4917 150.431 18.525 150.431 18.525C150.431 18.525 150.398 18.6417 150.331 18.875C150.281 19.1083 150.181 19.3833 150.031 19.7C149.881 20.0167 149.665 20.325 149.381 20.625C149.098 20.9083 148.731 21.1083 148.281 21.225C148.048 21.275 147.731 21.2833 147.331 21.25C146.948 21.2333 146.556 21.1583 146.156 21.025C145.756 20.8917 145.423 20.7083 145.156 20.475C145.006 20.3417 144.881 20.2 144.781 20.05C144.681 19.9 144.606 19.675 144.556 19.375C144.523 19.075 144.506 18.65 144.506 18.1V15.425C144.49 14.4583 144.281 13.6583 143.881 13.025C143.481 12.375 142.956 11.8167 142.306 11.35C142.006 11.1333 141.79 10.7833 141.656 10.3C141.54 9.8 141.465 9.275 141.431 8.725C141.398 8.175 141.39 7.70833 141.406 7.325C141.49 7.34167 141.715 7.375 142.081 7.425C142.448 7.475 142.765 7.5 143.031 7.5C143.565 7.48333 143.931 7.275 144.131 6.875C144.331 6.475 144.431 5.975 144.431 5.375L144.406 3.15C144.556 3.13333 144.806 3.11667 145.156 3.1C145.523 3.06667 145.923 3.06667 146.356 3.1C146.79 3.13333 147.206 3.21667 147.606 3.35C148.023 3.46667 148.373 3.65833 148.656 3.925C148.956 4.19167 149.131 4.55 149.181 5C149.181 5.05 149.181 5.11667 149.181 5.2C149.198 5.26667 149.206 5.35 149.206 5.45H149.231C149.231 5.66667 149.256 5.925 149.306 6.225C149.373 6.525 149.465 6.775 149.581 6.975C149.698 7.14167 149.881 7.26667 150.131 7.35C150.381 7.41667 150.623 7.45833 150.856 7.475C151.106 7.475 151.29 7.45833 151.406 7.425C151.59 7.375 151.723 7.33333 151.806 7.3C151.89 7.25 151.965 7.19167 152.031 7.125ZM168.042 17.825C168.058 18.125 168.108 18.4417 168.192 18.775C168.292 19.0917 168.525 19.325 168.892 19.475C168.675 19.7583 168.292 20.075 167.742 20.425C167.192 20.7583 166.6 20.975 165.967 21.075C165.383 21.1583 164.892 21.0917 164.492 20.875C164.108 20.6417 163.817 20.3083 163.617 19.875C163.433 19.4417 163.333 18.975 163.317 18.475C163.317 18.3417 163.325 18.0667 163.342 17.65C163.358 17.2167 163.367 16.725 163.367 16.175C163.367 15.625 163.358 15.1 163.342 14.6C163.342 14.1 163.317 13.7083 163.267 13.425C163.167 12.875 162.967 12.5667 162.667 12.5C162.383 12.4167 162.058 12.4833 161.692 12.7C161.108 13.0333 160.625 13.625 160.242 14.475C159.875 15.3083 159.683 16.375 159.667 17.675C159.65 18.1917 159.717 18.5667 159.867 18.8C160.017 19.0167 160.092 19.125 160.092 19.125C160.092 19.125 160.008 19.2667 159.842 19.55C159.675 19.8333 159.375 20.1417 158.942 20.475C158.508 20.7917 157.875 21.0167 157.042 21.15C156.575 21.2167 156.192 21.1333 155.892 20.9C155.592 20.65 155.375 20.3 155.242 19.85C155.108 19.4 155.033 18.925 155.017 18.425L154.942 3.9C154.925 3.21667 154.85 2.61667 154.717 2.1C154.583 1.56667 154.517 1.3 154.517 1.3C154.933 1.25 155.417 1.23333 155.967 1.25C156.533 1.26667 157.083 1.35 157.617 1.5C158.167 1.63333 158.633 1.86667 159.017 2.2C159.4 2.53333 159.625 2.98333 159.692 3.55C159.708 3.66667 159.725 3.89167 159.742 4.225C159.775 4.54167 159.792 4.86667 159.792 5.2C159.775 5.66667 159.842 6.05833 159.992 6.375C160.142 6.69167 160.342 6.93333 160.592 7.1C160.875 7.26667 161.233 7.325 161.667 7.275C162.1 7.20833 162.483 7.11667 162.817 7C163.15 6.86667 163.425 6.76667 163.642 6.7C163.875 6.63333 164.117 6.58333 164.367 6.55C164.65 6.51667 164.983 6.53333 165.367 6.6C165.75 6.65 166.125 6.775 166.492 6.975C166.875 7.175 167.2 7.45833 167.467 7.825C167.75 8.19167 167.925 8.65833 167.992 9.225C168.108 10.1917 168.133 11.375 168.067 12.775C168.017 14.1583 168.008 15.8417 168.042 17.825Z" fill="#4F08AA"/>
</svg>
